<svg width="59" height="60" viewBox="0 0 59 60" fill="none" xmlns="http://www.w3.org/2000/svg">
<path d="M14.866 47.5H20.6993V41.6667H26.5327V35.8333H20.6993V30H14.866V35.8333H9.03265V41.6667H14.866V47.5ZM32.366 37.2917H49.866V32.9167H32.366V37.2917ZM32.366 46.0417H44.0327V41.6667H32.366V46.0417ZM6.11599 59.1667C4.51182 59.1667 3.13904 58.596 1.99765 57.4546C0.856265 56.3132 0.284598 54.9394 0.282654 53.3333V21.25C0.282654 19.6458 0.854321 18.2731 1.99765 17.1317C3.14099 15.9903 4.51376 15.4186 6.11599 15.4167H20.6993V6.66666C20.6993 5.06249 21.271 3.68972 22.4143 2.54833C23.5577 1.40694 24.9304 0.835273 26.5327 0.833328H32.366C33.9702 0.833328 35.3439 1.405 36.4872 2.54833C37.6306 3.69166 38.2013 5.06444 38.1993 6.66666V15.4167H52.7827C54.3868 15.4167 55.7606 15.9883 56.9039 17.1317C58.0472 18.275 58.6179 19.6478 58.616 21.25V53.3333C58.616 54.9375 58.0453 56.3112 56.9039 57.4546C55.7625 58.5979 54.3888 59.1686 52.7827 59.1667H6.11599ZM6.11599 53.3333H52.7827V21.25H38.1993C38.1993 22.8542 37.6286 24.2279 36.4872 25.3712C35.3459 26.5146 33.9721 27.0853 32.366 27.0833H26.5327C24.9285 27.0833 23.5557 26.5126 22.4143 25.3712C21.2729 24.2299 20.7013 22.8561 20.6993 21.25H6.11599V53.3333ZM26.5327 21.25H32.366V6.66666H26.5327V21.25Z" fill="#FBFBFB"/>
</svg>
