<svg width="53" height="59" viewBox="0 0 53 59" fill="none" xmlns="http://www.w3.org/2000/svg">
<path d="M6.28264 58.3333C4.67848 58.3333 3.3057 57.7626 2.16431 56.6212C1.02292 55.4799 0.451255 54.1061 0.44931 52.5V11.6667C0.44931 10.0625 1.02098 8.68972 2.16431 7.54833C3.30764 6.40694 4.68042 5.83528 6.28264 5.83333H18.5326C19.1646 4.08333 20.2224 2.67361 21.706 1.60417C23.1896 0.534722 24.854 0 26.6993 0C28.5465 0 30.2119 0.534722 31.6956 1.60417C33.1792 2.67361 34.236 4.08333 34.866 5.83333H47.116C48.7201 5.83333 50.0939 6.405 51.2372 7.54833C52.3806 8.69167 52.9513 10.0644 52.9493 11.6667V52.5C52.9493 54.1042 52.3786 55.4779 51.2372 56.6212C50.0958 57.7646 48.7221 58.3353 47.116 58.3333H6.28264ZM6.28264 52.5H47.116V11.6667H6.28264V52.5ZM12.116 46.6667H32.5326V40.8333H12.116V46.6667ZM12.116 35H41.2826V29.1667H12.116V35ZM12.116 23.3333H41.2826V17.5H12.116V23.3333ZM26.6993 9.47917C27.3313 9.47917 27.8543 9.27208 28.2685 8.85792C28.6826 8.44375 28.8888 7.92167 28.8868 7.29167C28.8868 6.65972 28.6797 6.13764 28.2656 5.72542C27.8514 5.31319 27.3293 5.10611 26.6993 5.10417C26.0674 5.10417 25.5453 5.31125 25.1331 5.72542C24.7208 6.13958 24.5138 6.66167 24.5118 7.29167C24.5118 7.92361 24.7189 8.44667 25.1331 8.86083C25.5472 9.275 26.0693 9.48111 26.6993 9.47917Z" fill="#FBFBFB"/>
</svg>
